<?xml version="1.0" encoding="UTF-8" standalone="no"?>
<svg
   xmlns:dc="http://purl.org/dc/elements/1.1/"
   xmlns:cc="http://creativecommons.org/ns#"
   xmlns:rdf="http://www.w3.org/1999/02/22-rdf-syntax-ns#"
   xmlns:svg="http://www.w3.org/2000/svg"
   xmlns="http://www.w3.org/2000/svg"
   xmlns:sodipodi="http://sodipodi.sourceforge.net/DTD/sodipodi-0.dtd"
   xmlns:inkscape="http://www.inkscape.org/namespaces/inkscape"
   inkscape:version="1.0rc1 (09960d6f05, 2020-04-09)"
   sodipodi:docname="Cámara_de_diputados_de_Argentina.svg"
   id="svg564"
   viewBox="0 0 374.07607 280.591"
   version="1.1"
   height="1060.4933"
   width="1413.84">
  <defs
     id="defs568" />
  <sodipodi:namedview
     inkscape:current-layer="g562"
     inkscape:window-maximized="1"
     inkscape:window-y="0"
     inkscape:window-x="0"
     inkscape:cy="549.20688"
     inkscape:cx="252.57768"
     inkscape:zoom="0.35631729"
     fit-margin-bottom="0"
     fit-margin-right="0"
     fit-margin-left="0"
     fit-margin-top="0"
     inkscape:snap-center="true"
     units="px"
     showgrid="false"
     id="namedview566"
     inkscape:window-height="1019"
     inkscape:window-width="1920"
     inkscape:pageshadow="2"
     inkscape:pageopacity="0"
     guidetolerance="10"
     gridtolerance="10"
     objecttolerance="10"
     borderopacity="1"
     bordercolor="#666666"
     pagecolor="#ffffff" />
  <metadata
     id="metadata2">
    <rdf:RDF>
      <cc:Work
         rdf:about="">
        <dc:format>image/svg+xml</dc:format>
        <dc:type
           rdf:resource="http://purl.org/dc/dcmitype/StillImage" />
        <dc:title></dc:title>
      </cc:Work>
    </rdf:RDF>
  </metadata>
  <g
     id="g562"
     transform="translate(-87.888275,-156.73041)">
    <g
       inkscape:transform-center-y="138.59203"
       inkscape:transform-center-x="-185.35308"
       id="g560"
       transform="matrix(3.5278048,0,0,-3.5278048,-475.08146,2046.3285)">
      <g
         id="g174"
         fill="#c7c8ca">
        <path
           inkscape:connector-curvature="0"
           id="path4"
           d="m 183.98,497.18 c 0.632,0 1.144,-0.514 1.144,-1.144 0,-0.63 -0.512,-1.142 -1.144,-1.142 -0.63,0 -1.142,0.512 -1.142,1.142 0,0.63 0.512,1.144 1.142,1.144" />
        <path
           inkscape:connector-curvature="0"
           id="path6"
           d="m 184.46,500.8 c 0.631,0 1.143,-0.512 1.143,-1.144 0,-0.63 -0.512,-1.142 -1.143,-1.142 -0.629,0 -1.141,0.512 -1.141,1.142 0,0.632 0.512,1.144 1.141,1.144" />
        <path
           inkscape:connector-curvature="0"
           id="path8"
           d="m 185.38,504.27 c 0.632,0 1.142,-0.51 1.142,-1.142 0,-0.632 -0.51,-1.141 -1.142,-1.141 -0.628,0 -1.141,0.509 -1.141,1.141 0,0.632 0.513,1.142 1.141,1.142" />
        <path
           inkscape:connector-curvature="0"
           id="path10"
           d="m 186.71,507.55 c 0.632,0 1.144,-0.512 1.144,-1.144 0,-0.63 -0.512,-1.143 -1.144,-1.143 -0.63,0 -1.141,0.513 -1.141,1.143 0,0.632 0.511,1.144 1.141,1.144" />
        <path
           inkscape:connector-curvature="0"
           id="path12"
           d="m 188.42,510.61 c 0.631,0 1.143,-0.514 1.143,-1.144 0,-0.628 -0.512,-1.142 -1.143,-1.142 -0.629,0 -1.141,0.514 -1.141,1.142 0,0.63 0.512,1.144 1.141,1.144" />
        <path
           inkscape:connector-curvature="0"
           id="path14"
           d="m 190.48,513.42 c 0.633,0 1.144,-0.512 1.144,-1.144 0,-0.63 -0.511,-1.14 -1.144,-1.14 -0.63,0 -1.141,0.51 -1.141,1.14 0,0.632 0.511,1.144 1.141,1.144" />
        <path
           inkscape:connector-curvature="0"
           id="path16"
           d="m 192.86,515.95 c 0.632,0 1.143,-0.51 1.143,-1.142 0,-0.63 -0.511,-1.141 -1.143,-1.141 -0.63,0 -1.142,0.511 -1.142,1.141 0,0.632 0.512,1.142 1.142,1.142" />
        <path
           inkscape:connector-curvature="0"
           id="path18"
           d="m 195.54,518.18 c 0.631,0 1.141,-0.512 1.141,-1.142 0,-0.63 -0.51,-1.142 -1.141,-1.142 -0.63,0 -1.143,0.512 -1.143,1.142 0,0.63 0.513,1.142 1.143,1.142" />
        <path
           inkscape:connector-curvature="0"
           id="path20"
           d="m 198.48,520.06 c 0.632,0 1.143,-0.512 1.143,-1.142 0,-0.627 -0.511,-1.141 -1.143,-1.141 -0.629,0 -1.141,0.514 -1.141,1.141 0,0.63 0.512,1.142 1.141,1.142" />
        <path
           inkscape:connector-curvature="0"
           id="path22"
           d="m 201.66,521.58 c 0.629,0 1.141,-0.512 1.141,-1.144 0,-0.627 -0.512,-1.14 -1.141,-1.14 -0.632,0 -1.143,0.513 -1.143,1.14 0,0.632 0.511,1.144 1.143,1.144" />
        <path
           inkscape:connector-curvature="0"
           id="path24"
           d="m 205.03,522.71 c 0.631,0 1.142,-0.51 1.142,-1.144 0,-0.628 -0.511,-1.14 -1.142,-1.14 -0.631,0 -1.141,0.512 -1.141,1.14 0,0.634 0.51,1.144 1.141,1.144" />
        <path
           inkscape:connector-curvature="0"
           id="path26"
           d="m 208.58,523.4 c 0.632,0 1.142,-0.512 1.142,-1.144 0,-0.63 -0.51,-1.14 -1.142,-1.14 -0.631,0 -1.141,0.51 -1.141,1.14 0,0.632 0.51,1.144 1.141,1.144" />
        <path
           inkscape:connector-curvature="0"
           id="path28"
           d="m 212.28,523.64 c 0.631,0 1.141,-0.51 1.141,-1.144 0,-0.627 -0.51,-1.139 -1.141,-1.139 -0.629,0 -1.141,0.512 -1.141,1.139 0,0.634 0.512,1.144 1.141,1.144" />
        <path
           inkscape:connector-curvature="0"
           id="path30"
           d="m 215.97,523.4 c 0.632,0 1.141,-0.512 1.141,-1.144 0,-0.63 -0.509,-1.14 -1.141,-1.14 -0.63,0 -1.142,0.51 -1.142,1.14 0,0.632 0.512,1.144 1.142,1.144" />
        <path
           inkscape:connector-curvature="0"
           id="path32"
           d="m 219.52,522.71 c 0.631,0 1.143,-0.51 1.143,-1.144 0,-0.628 -0.512,-1.14 -1.143,-1.14 -0.631,0 -1.143,0.512 -1.143,1.14 0,0.634 0.512,1.144 1.143,1.144" />
        <path
           inkscape:connector-curvature="0"
           id="path34"
           d="m 222.9,521.58 c 0.63,0 1.142,-0.512 1.142,-1.144 0,-0.627 -0.512,-1.14 -1.142,-1.14 -0.631,0 -1.141,0.513 -1.141,1.14 0,0.632 0.51,1.144 1.141,1.144" />
        <path
           inkscape:connector-curvature="0"
           id="path36"
           d="m 226.08,520.06 c 0.629,0 1.141,-0.512 1.141,-1.142 0,-0.627 -0.512,-1.141 -1.141,-1.141 -0.633,0 -1.143,0.514 -1.143,1.141 0,0.63 0.51,1.142 1.143,1.142" />
        <path
           inkscape:connector-curvature="0"
           id="path38"
           d="m 229.01,518.18 c 0.634,0 1.144,-0.512 1.144,-1.142 0,-0.63 -0.51,-1.142 -1.144,-1.142 -0.63,0 -1.141,0.512 -1.141,1.142 0,0.63 0.511,1.142 1.141,1.142" />
        <path
           inkscape:connector-curvature="0"
           id="path40"
           d="m 231.69,515.95 c 0.633,0 1.144,-0.51 1.144,-1.142 0,-0.63 -0.511,-1.141 -1.144,-1.141 -0.629,0 -1.143,0.511 -1.143,1.141 0,0.632 0.514,1.142 1.143,1.142" />
        <path
           inkscape:connector-curvature="0"
           id="path42"
           d="m 234.08,513.42 c 0.629,0 1.141,-0.51 1.141,-1.144 0,-0.63 -0.512,-1.14 -1.141,-1.14 -0.632,0 -1.141,0.51 -1.141,1.14 0,0.634 0.509,1.144 1.141,1.144" />
        <path
           inkscape:connector-curvature="0"
           id="path44"
           d="m 236.14,510.61 c 0.633,0 1.144,-0.514 1.144,-1.144 0,-0.628 -0.511,-1.142 -1.144,-1.142 -0.63,0 -1.141,0.514 -1.141,1.142 0,0.63 0.511,1.144 1.141,1.144" />
        <path
           inkscape:connector-curvature="0"
           id="path46"
           d="m 237.85,507.55 c 0.629,0 1.14,-0.512 1.14,-1.142 0,-0.632 -0.511,-1.145 -1.14,-1.145 -0.632,0 -1.144,0.513 -1.144,1.145 0,0.63 0.512,1.142 1.144,1.142" />
        <path
           inkscape:connector-curvature="0"
           id="path48"
           d="m 239.18,504.27 c 0.63,0 1.141,-0.51 1.141,-1.142 0,-0.632 -0.511,-1.141 -1.141,-1.141 -0.631,0 -1.142,0.509 -1.142,1.141 0,0.632 0.511,1.142 1.142,1.142" />
        <path
           inkscape:connector-curvature="0"
           id="path50"
           d="m 240.1,500.8 c 0.63,0 1.141,-0.512 1.141,-1.144 0,-0.63 -0.511,-1.14 -1.141,-1.14 -0.631,0 -1.142,0.51 -1.142,1.14 0,0.632 0.511,1.144 1.142,1.144" />
        <path
           inkscape:connector-curvature="0"
           id="path52"
           d="m 240.57,497.18 c 0.63,0 1.141,-0.514 1.141,-1.144 0,-0.63 -0.511,-1.142 -1.141,-1.142 -0.632,0 -1.142,0.512 -1.142,1.142 0,0.63 0.51,1.144 1.142,1.144" />
        <path
           inkscape:connector-curvature="0"
           id="path54"
           d="m 187,497.18 c 0.631,0 1.142,-0.514 1.142,-1.144 0,-0.63 -0.511,-1.142 -1.142,-1.142 -0.629,0 -1.142,0.512 -1.142,1.142 0,0.63 0.513,1.144 1.142,1.144" />
        <path
           inkscape:connector-curvature="0"
           id="path56"
           d="m 187.47,500.53 c 0.632,0 1.143,-0.512 1.143,-1.144 0,-0.63 -0.511,-1.14 -1.143,-1.14 -0.629,0 -1.14,0.51 -1.14,1.14 0,0.632 0.511,1.144 1.14,1.144" />
        <path
           inkscape:connector-curvature="0"
           id="path58"
           d="m 188.37,503.73 c 0.633,0 1.144,-0.512 1.144,-1.144 0,-0.63 -0.511,-1.14 -1.144,-1.14 -0.63,0 -1.14,0.51 -1.14,1.14 0,0.632 0.51,1.144 1.14,1.144" />
        <path
           inkscape:connector-curvature="0"
           id="path60"
           d="m 189.66,506.74 c 0.629,0 1.142,-0.514 1.142,-1.144 0,-0.628 -0.513,-1.14 -1.142,-1.14 -0.631,0 -1.142,0.512 -1.142,1.14 0,0.63 0.511,1.144 1.142,1.144" />
        <path
           inkscape:connector-curvature="0"
           id="path62"
           d="m 191.31,509.54 c 0.631,0 1.141,-0.514 1.141,-1.145 0,-0.629 -0.51,-1.141 -1.141,-1.141 -0.629,0 -1.141,0.512 -1.141,1.141 0,0.631 0.512,1.145 1.141,1.145" />
        <path
           inkscape:connector-curvature="0"
           id="path64"
           d="m 193.3,512.09 c 0.629,0 1.141,-0.512 1.141,-1.144 0,-0.628 -0.512,-1.139 -1.141,-1.139 -0.633,0 -1.143,0.511 -1.143,1.139 0,0.632 0.51,1.144 1.143,1.144" />
        <path
           inkscape:connector-curvature="0"
           id="path66"
           d="m 195.59,514.36 c 0.631,0 1.141,-0.51 1.141,-1.142 0,-0.629 -0.51,-1.141 -1.141,-1.141 -0.631,0 -1.141,0.512 -1.141,1.141 0,0.632 0.51,1.142 1.141,1.142" />
        <path
           inkscape:connector-curvature="0"
           id="path68"
           d="m 198.15,516.34 c 0.631,0 1.143,-0.514 1.143,-1.145 0,-0.63 -0.512,-1.139 -1.143,-1.139 -0.63,0 -1.141,0.509 -1.141,1.139 0,0.631 0.511,1.145 1.141,1.145" />
        <path
           inkscape:connector-curvature="0"
           id="path70"
           d="m 200.96,517.97 c 0.631,0 1.144,-0.51 1.144,-1.142 0,-0.63 -0.513,-1.142 -1.144,-1.142 -0.631,0 -1.141,0.512 -1.141,1.142 0,0.632 0.51,1.142 1.141,1.142" />
        <path
           inkscape:connector-curvature="0"
           id="path72"
           d="m 203.98,519.25 c 0.631,0 1.142,-0.514 1.142,-1.144 0,-0.631 -0.511,-1.142 -1.142,-1.142 -0.629,0 -1.141,0.511 -1.141,1.142 0,0.63 0.512,1.144 1.141,1.144" />
        <path
           inkscape:connector-curvature="0"
           id="path74"
           d="m 207.18,520.12 c 0.631,0 1.141,-0.51 1.141,-1.144 0,-0.63 -0.51,-1.14 -1.141,-1.14 -0.632,0 -1.143,0.51 -1.143,1.14 0,0.634 0.511,1.144 1.143,1.144" />
        <path
           inkscape:connector-curvature="0"
           id="path76"
           d="m 210.54,520.58 c 0.632,0 1.142,-0.512 1.142,-1.144 0,-0.63 -0.51,-1.14 -1.142,-1.14 -0.629,0 -1.141,0.51 -1.141,1.14 0,0.632 0.512,1.144 1.141,1.144" />
        <path
           inkscape:connector-curvature="0"
           id="path78"
           d="m 214,520.58 c 0.629,0 1.141,-0.512 1.141,-1.142 0,-0.632 -0.512,-1.141 -1.141,-1.141 -0.632,0 -1.143,0.509 -1.143,1.141 0,0.63 0.511,1.142 1.143,1.142" />
        <path
           inkscape:connector-curvature="0"
           id="path80"
           d="m 217.36,520.12 c 0.63,0 1.141,-0.512 1.141,-1.145 0,-0.629 -0.511,-1.141 -1.141,-1.141 -0.631,0 -1.143,0.512 -1.143,1.141 0,0.633 0.512,1.145 1.143,1.145" />
        <path
           inkscape:connector-curvature="0"
           id="path82"
           d="m 220.57,519.25 c 0.63,0 1.142,-0.512 1.142,-1.142 0,-0.63 -0.512,-1.142 -1.142,-1.142 -0.632,0 -1.141,0.512 -1.141,1.142 0,0.63 0.509,1.142 1.141,1.142" />
        <path
           inkscape:connector-curvature="0"
           id="path84"
           d="m 223.59,517.98 c 0.629,0 1.141,-0.512 1.141,-1.144 0,-0.63 -0.512,-1.142 -1.141,-1.142 -0.632,0 -1.142,0.512 -1.142,1.142 0,0.632 0.51,1.144 1.142,1.144" />
        <path
           inkscape:connector-curvature="0"
           id="path86"
           d="m 226.4,516.34 c 0.63,0 1.142,-0.512 1.142,-1.144 0,-0.63 -0.512,-1.14 -1.142,-1.14 -0.632,0 -1.144,0.51 -1.144,1.14 0,0.632 0.512,1.144 1.144,1.144" />
        <path
           inkscape:connector-curvature="0"
           id="path88"
           d="m 228.96,514.37 c 0.629,0 1.141,-0.512 1.141,-1.144 0,-0.628 -0.512,-1.139 -1.141,-1.139 -0.632,0 -1.141,0.511 -1.141,1.139 0,0.632 0.509,1.144 1.141,1.144" />
        <path
           inkscape:connector-curvature="0"
           id="path90"
           d="m 231.25,512.09 c 0.631,0 1.142,-0.514 1.142,-1.144 0,-0.628 -0.511,-1.142 -1.142,-1.142 -0.631,0 -1.143,0.514 -1.143,1.142 0,0.63 0.512,1.144 1.143,1.144" />
        <path
           inkscape:connector-curvature="0"
           id="path92"
           d="m 233.23,509.54 c 0.627,0 1.14,-0.512 1.14,-1.145 0,-0.629 -0.513,-1.142 -1.14,-1.142 -0.634,0 -1.143,0.513 -1.143,1.142 0,0.633 0.509,1.145 1.143,1.145" />
        <path
           inkscape:connector-curvature="0"
           id="path94"
           d="m 234.89,506.74 c 0.629,0 1.141,-0.51 1.141,-1.142 0,-0.629 -0.512,-1.141 -1.141,-1.141 -0.633,0 -1.143,0.512 -1.143,1.141 0,0.632 0.51,1.142 1.143,1.142" />
        <path
           inkscape:connector-curvature="0"
           id="path96"
           d="m 236.17,503.73 c 0.629,0 1.141,-0.512 1.141,-1.144 0,-0.63 -0.512,-1.139 -1.141,-1.139 -0.632,0 -1.144,0.509 -1.144,1.139 0,0.632 0.512,1.144 1.144,1.144" />
        <path
           inkscape:connector-curvature="0"
           id="path98"
           d="m 237.07,500.53 c 0.63,0 1.143,-0.512 1.143,-1.144 0,-0.63 -0.513,-1.142 -1.143,-1.142 -0.628,0 -1.142,0.512 -1.142,1.142 0,0.632 0.514,1.144 1.142,1.144" />
        <path
           inkscape:connector-curvature="0"
           id="path100"
           d="m 237.55,497.18 c 0.631,0 1.141,-0.514 1.141,-1.144 0,-0.63 -0.51,-1.142 -1.141,-1.142 -0.632,0 -1.143,0.512 -1.143,1.142 0,0.63 0.511,1.144 1.143,1.144" />
        <path
           inkscape:connector-curvature="0"
           id="path102"
           d="m 190.01,497.18 c 0.631,0 1.143,-0.514 1.143,-1.144 0,-0.63 -0.512,-1.142 -1.143,-1.142 -0.63,0 -1.141,0.512 -1.141,1.142 0,0.63 0.511,1.144 1.141,1.144" />
        <path
           inkscape:connector-curvature="0"
           id="path104"
           d="m 190.64,500.9 c 0.631,0 1.143,-0.514 1.143,-1.145 0,-0.63 -0.512,-1.141 -1.143,-1.141 -0.63,0 -1.141,0.511 -1.141,1.141 0,0.631 0.511,1.145 1.141,1.145" />
        <path
           inkscape:connector-curvature="0"
           id="path106"
           d="m 191.86,504.38 c 0.631,0 1.143,-0.51 1.143,-1.144 0,-0.63 -0.512,-1.139 -1.143,-1.139 -0.63,0 -1.141,0.509 -1.141,1.139 0,0.634 0.511,1.144 1.141,1.144" />
        <path
           inkscape:connector-curvature="0"
           id="path108"
           d="m 193.61,507.57 c 0.632,0 1.142,-0.514 1.142,-1.144 0,-0.628 -0.51,-1.142 -1.142,-1.142 -0.629,0 -1.142,0.514 -1.142,1.142 0,0.63 0.513,1.144 1.142,1.144" />
        <path
           inkscape:connector-curvature="0"
           id="path110"
           d="m 195.84,510.41 c 0.632,0 1.143,-0.51 1.143,-1.142 0,-0.63 -0.511,-1.144 -1.143,-1.144 -0.63,0 -1.143,0.514 -1.143,1.144 0,0.632 0.513,1.142 1.143,1.142" />
        <path
           inkscape:connector-curvature="0"
           id="path112"
           d="m 198.49,512.87 c 0.63,0 1.141,-0.51 1.141,-1.142 0,-0.629 -0.511,-1.142 -1.141,-1.142 -0.63,0 -1.143,0.513 -1.143,1.142 0,0.632 0.513,1.142 1.143,1.142" />
        <path
           inkscape:connector-curvature="0"
           id="path114"
           d="m 201.52,514.87 c 0.633,0 1.142,-0.512 1.142,-1.144 0,-0.63 -0.509,-1.14 -1.142,-1.14 -0.63,0 -1.142,0.51 -1.142,1.14 0,0.632 0.512,1.144 1.142,1.144" />
        <path
           inkscape:connector-curvature="0"
           id="path116"
           d="m 204.86,516.36 c 0.632,0 1.141,-0.514 1.141,-1.142 0,-0.63 -0.509,-1.141 -1.141,-1.141 -0.63,0 -1.143,0.511 -1.143,1.141 0,0.628 0.513,1.142 1.143,1.142" />
        <path
           inkscape:connector-curvature="0"
           id="path118"
           d="m 208.46,517.3 c 0.631,0 1.141,-0.512 1.141,-1.144 0,-0.627 -0.51,-1.14 -1.141,-1.14 -0.631,0 -1.143,0.513 -1.143,1.14 0,0.632 0.512,1.144 1.143,1.144" />
        <path
           inkscape:connector-curvature="0"
           id="path120"
           d="m 212.27,517.63 c 0.632,0 1.143,-0.514 1.143,-1.144 0,-0.63 -0.511,-1.14 -1.143,-1.14 -0.629,0 -1.142,0.51 -1.142,1.14 0,0.63 0.513,1.144 1.142,1.144" />
        <path
           inkscape:connector-curvature="0"
           id="path122"
           d="m 216.09,517.3 c 0.631,0 1.142,-0.512 1.142,-1.144 0,-0.63 -0.511,-1.14 -1.142,-1.14 -0.628,0 -1.141,0.51 -1.141,1.14 0,0.632 0.513,1.144 1.141,1.144" />
        <path
           inkscape:connector-curvature="0"
           id="path124"
           d="m 219.69,516.37 c 0.63,0 1.142,-0.512 1.142,-1.142 0,-0.632 -0.512,-1.142 -1.142,-1.142 -0.631,0 -1.144,0.51 -1.144,1.142 0,0.63 0.513,1.142 1.144,1.142" />
        <path
           inkscape:connector-curvature="0"
           id="path126"
           d="m 223.03,514.87 c 0.632,0 1.143,-0.514 1.143,-1.142 0,-0.632 -0.511,-1.142 -1.143,-1.142 -0.63,0 -1.143,0.51 -1.143,1.142 0,0.628 0.513,1.142 1.143,1.142" />
        <path
           inkscape:connector-curvature="0"
           id="path128"
           d="m 226.05,512.87 c 0.632,0 1.142,-0.51 1.142,-1.144 0,-0.627 -0.51,-1.14 -1.142,-1.14 -0.629,0 -1.141,0.513 -1.141,1.14 0,0.634 0.512,1.144 1.141,1.144" />
        <path
           inkscape:connector-curvature="0"
           id="path130"
           d="m 228.71,510.42 c 0.63,0 1.142,-0.514 1.142,-1.142 0,-0.632 -0.512,-1.141 -1.142,-1.141 -0.629,0 -1.143,0.509 -1.143,1.141 0,0.628 0.514,1.142 1.143,1.142" />
        <path
           inkscape:connector-curvature="0"
           id="path132"
           d="m 230.93,507.57 c 0.632,0 1.143,-0.51 1.143,-1.142 0,-0.63 -0.511,-1.142 -1.143,-1.142 -0.63,0 -1.143,0.512 -1.143,1.142 0,0.632 0.513,1.142 1.143,1.142" />
        <path
           inkscape:connector-curvature="0"
           id="path134"
           d="m 232.68,504.38 c 0.632,0 1.143,-0.512 1.143,-1.144 0,-0.63 -0.511,-1.142 -1.143,-1.142 -0.63,0 -1.142,0.512 -1.142,1.142 0,0.632 0.512,1.144 1.142,1.144" />
        <path
           inkscape:connector-curvature="0"
           id="path136"
           d="m 233.9,500.9 c 0.631,0 1.145,-0.514 1.145,-1.145 0,-0.63 -0.514,-1.141 -1.145,-1.141 -0.628,0 -1.141,0.511 -1.141,1.141 0,0.631 0.513,1.145 1.141,1.145" />
        <path
           inkscape:connector-curvature="0"
           id="path138"
           d="m 234.53,497.18 c 0.632,0 1.143,-0.514 1.143,-1.144 0,-0.63 -0.511,-1.142 -1.143,-1.142 -0.629,0 -1.142,0.512 -1.142,1.142 0,0.63 0.513,1.144 1.142,1.144" />
        <path
           inkscape:connector-curvature="0"
           id="path140"
           d="m 193.03,497.18 c 0.632,0 1.141,-0.514 1.141,-1.144 0,-0.63 -0.509,-1.142 -1.141,-1.142 -0.631,0 -1.141,0.512 -1.141,1.142 0,0.63 0.51,1.144 1.141,1.144" />
        <path
           inkscape:connector-curvature="0"
           id="path142"
           d="m 193.72,500.74 c 0.633,0 1.142,-0.512 1.142,-1.144 0,-0.63 -0.509,-1.14 -1.142,-1.14 -0.631,0 -1.141,0.51 -1.141,1.14 0,0.632 0.51,1.144 1.141,1.144" />
        <path
           inkscape:connector-curvature="0"
           id="path144"
           d="m 195.03,504.03 c 0.63,0 1.141,-0.512 1.141,-1.145 0,-0.627 -0.511,-1.139 -1.141,-1.139 -0.632,0 -1.144,0.512 -1.144,1.139 0,0.633 0.512,1.145 1.144,1.145" />
        <path
           inkscape:connector-curvature="0"
           id="path146"
           d="m 196.9,507 c 0.629,0 1.141,-0.512 1.141,-1.144 0,-0.63 -0.512,-1.14 -1.141,-1.14 -0.632,0 -1.145,0.51 -1.145,1.14 0,0.632 0.513,1.144 1.145,1.144" />
        <path
           inkscape:connector-curvature="0"
           id="path148"
           d="m 199.25,509.57 c 0.632,0 1.141,-0.512 1.141,-1.145 0,-0.629 -0.509,-1.141 -1.141,-1.141 -0.631,0 -1.142,0.512 -1.142,1.141 0,0.633 0.511,1.145 1.142,1.145" />
        <path
           inkscape:connector-curvature="0"
           id="path150"
           d="m 202.03,511.68 c 0.632,0 1.142,-0.512 1.142,-1.142 0,-0.632 -0.51,-1.142 -1.142,-1.142 -0.629,0 -1.141,0.51 -1.141,1.142 0,0.63 0.512,1.142 1.141,1.142" />
        <path
           inkscape:connector-curvature="0"
           id="path152"
           d="m 205.17,513.27 c 0.629,0 1.141,-0.51 1.141,-1.142 0,-0.63 -0.512,-1.141 -1.141,-1.141 -0.632,0 -1.141,0.511 -1.141,1.141 0,0.632 0.509,1.142 1.141,1.142" />
        <path
           inkscape:connector-curvature="0"
           id="path154"
           d="m 208.61,514.27 c 0.632,0 1.143,-0.512 1.143,-1.142 0,-0.632 -0.511,-1.142 -1.143,-1.142 -0.631,0 -1.143,0.51 -1.143,1.142 0,0.63 0.512,1.142 1.143,1.142" />
        <path
           inkscape:connector-curvature="0"
           id="path156"
           d="m 212.28,514.62 c 0.632,0 1.143,-0.514 1.143,-1.144 0,-0.63 -0.511,-1.143 -1.143,-1.143 -0.629,0 -1.143,0.513 -1.143,1.143 0,0.63 0.514,1.144 1.143,1.144" />
        <path
           inkscape:connector-curvature="0"
           id="path158"
           d="m 215.95,514.27 c 0.631,0 1.141,-0.512 1.141,-1.142 0,-0.632 -0.51,-1.142 -1.141,-1.142 -0.629,0 -1.143,0.51 -1.143,1.142 0,0.63 0.514,1.142 1.143,1.142" />
        <path
           inkscape:connector-curvature="0"
           id="path160"
           d="m 219.39,513.27 c 0.632,0 1.141,-0.51 1.141,-1.142 0,-0.63 -0.509,-1.141 -1.141,-1.141 -0.63,0 -1.141,0.511 -1.141,1.141 0,0.632 0.511,1.142 1.141,1.142" />
        <path
           inkscape:connector-curvature="0"
           id="path162"
           d="m 222.53,511.68 c 0.632,0 1.141,-0.512 1.141,-1.142 0,-0.632 -0.509,-1.142 -1.141,-1.142 -0.632,0 -1.143,0.51 -1.143,1.142 0,0.63 0.511,1.142 1.143,1.142" />
        <path
           inkscape:connector-curvature="0"
           id="path164"
           d="m 225.31,509.57 c 0.633,0 1.142,-0.512 1.142,-1.145 0,-0.629 -0.509,-1.141 -1.142,-1.141 -0.631,0 -1.141,0.512 -1.141,1.141 0,0.633 0.51,1.145 1.141,1.145" />
        <path
           inkscape:connector-curvature="0"
           id="path166"
           d="m 227.66,507 c 0.631,0 1.141,-0.512 1.141,-1.144 0,-0.63 -0.51,-1.14 -1.141,-1.14 -0.633,0 -1.142,0.51 -1.142,1.14 0,0.632 0.509,1.144 1.142,1.144" />
        <path
           inkscape:connector-curvature="0"
           id="path168"
           d="m 229.53,504.03 c 0.63,0 1.141,-0.512 1.141,-1.145 0,-0.627 -0.511,-1.139 -1.141,-1.139 -0.632,0 -1.144,0.512 -1.144,1.139 0,0.633 0.512,1.145 1.144,1.145" />
        <path
           inkscape:connector-curvature="0"
           id="path170"
           d="m 230.84,500.74 c 0.629,0 1.14,-0.512 1.14,-1.144 0,-0.63 -0.511,-1.14 -1.14,-1.14 -0.631,0 -1.145,0.51 -1.145,1.14 0,0.632 0.514,1.144 1.145,1.144" />
        <path
           inkscape:connector-curvature="0"
           id="path172"
           d="m 231.52,497.18 c 0.631,0 1.141,-0.514 1.141,-1.144 0,-0.63 -0.51,-1.142 -1.141,-1.142 -0.629,0 -1.142,0.512 -1.142,1.142 0,0.63 0.513,1.144 1.142,1.144" />
      </g>
      <g
         id="g520"
         fill="#6eaadc">
        <path
           inkscape:connector-curvature="0"
           id="path176"
           d="m 196.09,497.18 c 0.629,0 1.141,-0.514 1.141,-1.144 0,-0.63 -0.512,-1.142 -1.141,-1.142 -0.632,0 -1.143,0.512 -1.143,1.142 0,0.63 0.511,1.144 1.143,1.144" />
        <path
           inkscape:connector-curvature="0"
           id="path178"
           d="m 196.84,500.53 c 0.631,0 1.141,-0.514 1.141,-1.144 0,-0.63 -0.51,-1.14 -1.141,-1.14 -0.631,0 -1.142,0.51 -1.142,1.14 0,0.63 0.511,1.144 1.142,1.144" />
        <path
           inkscape:connector-curvature="0"
           id="path180"
           d="m 198.25,503.59 c 0.631,0 1.142,-0.51 1.142,-1.144 0,-0.628 -0.511,-1.14 -1.142,-1.14 -0.631,0 -1.143,0.512 -1.143,1.14 0,0.634 0.512,1.144 1.143,1.144" />
        <path
           inkscape:connector-curvature="0"
           id="path182"
           d="m 200.22,506.27 c 0.632,0 1.141,-0.514 1.141,-1.144 0,-0.631 -0.509,-1.143 -1.141,-1.143 -0.631,0 -1.142,0.512 -1.142,1.143 0,0.63 0.511,1.144 1.142,1.144" />
        <path
           inkscape:connector-curvature="0"
           id="path184"
           d="m 202.69,508.49 c 0.629,0 1.141,-0.512 1.141,-1.145 0,-0.629 -0.512,-1.141 -1.141,-1.141 -0.63,0 -1.142,0.512 -1.142,1.141 0,0.633 0.512,1.145 1.142,1.145" />
        <path
           inkscape:connector-curvature="0"
           id="path186"
           d="m 205.57,510.17 c 0.63,0 1.141,-0.514 1.141,-1.144 0,-0.63 -0.511,-1.142 -1.141,-1.142 -0.632,0 -1.143,0.512 -1.143,1.142 0,0.63 0.511,1.144 1.143,1.144" />
        <path
           inkscape:connector-curvature="0"
           id="path188"
           d="m 208.79,511.24 c 0.631,0 1.141,-0.512 1.141,-1.142 0,-0.63 -0.51,-1.142 -1.141,-1.142 -0.63,0 -1.142,0.512 -1.142,1.142 0,0.63 0.512,1.142 1.142,1.142" />
        <path
           inkscape:connector-curvature="0"
           id="path190"
           d="m 212.28,511.61 c 0.632,0 1.141,-0.51 1.141,-1.145 0,-0.627 -0.509,-1.139 -1.141,-1.139 -0.631,0 -1.143,0.512 -1.143,1.139 0,0.635 0.512,1.145 1.143,1.145" />
        <path
           inkscape:connector-curvature="0"
           id="path192"
           d="m 215.76,511.24 c 0.629,0 1.141,-0.512 1.141,-1.142 0,-0.63 -0.512,-1.142 -1.141,-1.142 -0.633,0 -1.144,0.512 -1.144,1.142 0,0.63 0.511,1.142 1.144,1.142" />
        <path
           inkscape:connector-curvature="0"
           id="path194"
           d="m 218.98,510.17 c 0.632,0 1.141,-0.512 1.141,-1.144 0,-0.63 -0.509,-1.142 -1.141,-1.142 -0.629,0 -1.14,0.512 -1.14,1.142 0,0.632 0.511,1.144 1.14,1.144" />
        <path
           inkscape:connector-curvature="0"
           id="path196"
           d="m 221.87,508.49 c 0.629,0 1.141,-0.512 1.141,-1.145 0,-0.629 -0.512,-1.141 -1.141,-1.141 -0.633,0 -1.144,0.512 -1.144,1.141 0,0.633 0.511,1.145 1.144,1.145" />
        <path
           inkscape:connector-curvature="0"
           id="path198"
           d="m 224.34,506.27 c 0.629,0 1.141,-0.512 1.141,-1.144 0,-0.631 -0.512,-1.142 -1.141,-1.142 -0.633,0 -1.143,0.511 -1.143,1.142 0,0.632 0.51,1.144 1.143,1.144" />
        <path
           inkscape:connector-curvature="0"
           id="path200"
           d="m 226.31,503.59 c 0.63,0 1.14,-0.512 1.14,-1.144 0,-0.628 -0.51,-1.142 -1.14,-1.142 -0.63,0 -1.143,0.514 -1.143,1.142 0,0.632 0.513,1.144 1.143,1.144" />
        <path
           inkscape:connector-curvature="0"
           id="path202"
           d="m 227.72,500.54 c 0.631,0 1.142,-0.515 1.142,-1.145 0,-0.63 -0.511,-1.141 -1.142,-1.141 -0.632,0 -1.143,0.511 -1.143,1.141 0,0.63 0.511,1.145 1.143,1.145" />
        <path
           inkscape:connector-curvature="0"
           id="path204"
           d="m 228.48,497.18 c 0.631,0 1.142,-0.514 1.142,-1.144 0,-0.63 -0.511,-1.142 -1.142,-1.142 -0.631,0 -1.142,0.512 -1.142,1.142 0,0.63 0.511,1.144 1.142,1.144" />
        <path
           inkscape:connector-curvature="0"
           id="path206"
           d="m 199.11,497.18 c 0.632,0 1.142,-0.514 1.142,-1.144 0,-0.63 -0.51,-1.142 -1.142,-1.142 -0.63,0 -1.142,0.512 -1.142,1.142 0,0.63 0.512,1.144 1.142,1.144" />
        <path
           inkscape:connector-curvature="0"
           id="path208"
           d="m 200.05,500.53 c 0.632,0 1.141,-0.514 1.141,-1.144 0,-0.631 -0.509,-1.143 -1.141,-1.143 -0.631,0 -1.142,0.512 -1.142,1.143 0,0.63 0.511,1.144 1.142,1.144" />
        <path
           inkscape:connector-curvature="0"
           id="path210"
           d="m 201.78,503.47 c 0.63,0 1.142,-0.51 1.142,-1.144 0,-0.628 -0.512,-1.14 -1.142,-1.14 -0.632,0 -1.143,0.512 -1.143,1.14 0,0.634 0.511,1.144 1.143,1.144" />
        <path
           inkscape:connector-curvature="0"
           id="path212"
           d="m 204.18,505.85 c 0.631,0 1.141,-0.51 1.141,-1.144 0,-0.627 -0.51,-1.14 -1.141,-1.14 -0.631,0 -1.145,0.513 -1.145,1.14 0,0.634 0.514,1.144 1.145,1.144" />
        <path
           inkscape:connector-curvature="0"
           id="path214"
           d="m 207.13,507.57 c 0.632,0 1.141,-0.512 1.141,-1.142 0,-0.632 -0.509,-1.142 -1.141,-1.142 -0.63,0 -1.143,0.51 -1.143,1.142 0,0.63 0.513,1.142 1.143,1.142" />
        <path
           inkscape:connector-curvature="0"
           id="path216"
           d="m 210.49,508.48 c 0.631,0 1.142,-0.512 1.142,-1.145 0,-0.629 -0.511,-1.139 -1.142,-1.139 -0.629,0 -1.141,0.51 -1.141,1.139 0,0.633 0.512,1.145 1.141,1.145" />
        <path
           inkscape:connector-curvature="0"
           id="path218"
           d="m 214.09,508.48 c 0.631,0 1.142,-0.512 1.142,-1.145 0,-0.629 -0.511,-1.141 -1.142,-1.141 -0.631,0 -1.144,0.512 -1.144,1.141 0,0.633 0.513,1.145 1.144,1.145" />
        <path
           inkscape:connector-curvature="0"
           id="path220"
           d="m 217.45,507.56 c 0.633,0 1.141,-0.51 1.141,-1.142 0,-0.63 -0.508,-1.142 -1.141,-1.142 -0.632,0 -1.143,0.512 -1.143,1.142 0,0.632 0.511,1.142 1.143,1.142" />
        <path
           inkscape:connector-curvature="0"
           id="path222"
           d="m 220.4,505.85 c 0.63,0 1.142,-0.512 1.142,-1.142 0,-0.629 -0.512,-1.142 -1.142,-1.142 -0.63,0 -1.143,0.513 -1.143,1.142 0,0.63 0.513,1.142 1.143,1.142" />
        <path
           inkscape:connector-curvature="0"
           id="path224"
           d="m 222.8,503.46 c 0.632,0 1.142,-0.51 1.142,-1.142 0,-0.63 -0.51,-1.141 -1.142,-1.141 -0.632,0 -1.142,0.511 -1.142,1.141 0,0.632 0.51,1.142 1.142,1.142" />
        <path
           inkscape:connector-curvature="0"
           id="path226"
           d="m 224.54,500.53 c 0.63,0 1.143,-0.512 1.143,-1.144 0,-0.628 -0.513,-1.142 -1.143,-1.142 -0.629,0 -1.142,0.514 -1.142,1.142 0,0.632 0.513,1.144 1.142,1.144" />
        <path
           inkscape:connector-curvature="0"
           id="path228"
           d="m 225.48,497.18 c 0.632,0 1.144,-0.514 1.144,-1.144 0,-0.63 -0.512,-1.142 -1.144,-1.142 -0.63,0 -1.141,0.512 -1.141,1.142 0,0.63 0.511,1.144 1.141,1.144" />
        <path
           inkscape:connector-curvature="0"
           id="path230"
           d="m 202.15,497.18 c 0.63,0 1.142,-0.514 1.142,-1.144 0,-0.63 -0.512,-1.142 -1.142,-1.142 -0.632,0 -1.143,0.512 -1.143,1.142 0,0.63 0.511,1.144 1.143,1.144" />
        <path
           inkscape:connector-curvature="0"
           id="path232"
           d="m 203.21,500.17 c 0.632,0 1.144,-0.514 1.144,-1.145 0,-0.627 -0.512,-1.139 -1.144,-1.139 -0.629,0 -1.143,0.512 -1.143,1.139 0,0.631 0.514,1.145 1.143,1.145" />
        <path
           inkscape:connector-curvature="0"
           id="path234"
           d="m 205.08,502.66 c 0.63,0 1.141,-0.514 1.141,-1.142 0,-0.632 -0.511,-1.144 -1.141,-1.144 -0.632,0 -1.143,0.512 -1.143,1.144 0,0.628 0.511,1.142 1.143,1.142" />
        <path
           inkscape:connector-curvature="0"
           id="path236"
           d="m 207.61,504.48 c 0.631,0 1.142,-0.514 1.142,-1.145 0,-0.63 -0.511,-1.141 -1.142,-1.141 -0.631,0 -1.142,0.511 -1.142,1.141 0,0.631 0.511,1.145 1.142,1.145" />
        <path
           inkscape:connector-curvature="0"
           id="path238"
           d="m 210.63,505.46 c 0.629,0 1.14,-0.512 1.14,-1.144 0,-0.628 -0.511,-1.14 -1.14,-1.14 -0.631,0 -1.143,0.512 -1.143,1.14 0,0.632 0.512,1.144 1.143,1.144" />
        <path
           inkscape:connector-curvature="0"
           id="path240"
           d="m 213.93,505.46 c 0.63,0 1.141,-0.512 1.141,-1.144 0,-0.628 -0.511,-1.14 -1.141,-1.14 -0.632,0 -1.143,0.512 -1.143,1.14 0,0.632 0.511,1.144 1.143,1.144" />
        <path
           inkscape:connector-curvature="0"
           id="path242"
           d="m 216.95,504.48 c 0.629,0 1.141,-0.514 1.141,-1.145 0,-0.63 -0.512,-1.141 -1.141,-1.141 -0.631,0 -1.141,0.511 -1.141,1.141 0,0.631 0.51,1.145 1.141,1.145" />
        <path
           inkscape:connector-curvature="0"
           id="path244"
           d="m 219.48,502.66 c 0.629,0 1.141,-0.514 1.141,-1.142 0,-0.632 -0.512,-1.144 -1.141,-1.144 -0.632,0 -1.142,0.512 -1.142,1.144 0,0.628 0.51,1.142 1.142,1.142" />
        <path
           inkscape:connector-curvature="0"
           id="path246"
           d="m 221.35,500.17 c 0.631,0 1.141,-0.514 1.141,-1.144 0,-0.63 -0.51,-1.14 -1.141,-1.14 -0.632,0 -1.143,0.51 -1.143,1.14 0,0.63 0.511,1.144 1.143,1.144" />
        <path
           inkscape:connector-curvature="0"
           id="path248"
           d="m 222.41,497.18 c 0.628,0 1.141,-0.514 1.141,-1.144 0,-0.63 -0.513,-1.142 -1.141,-1.142 -0.632,0 -1.142,0.512 -1.142,1.142 0,0.63 0.51,1.144 1.142,1.144" />
        <path
           inkscape:connector-curvature="0"
           id="path250"
           d="m 205.23,497.18 c 0.63,0 1.141,-0.514 1.141,-1.144 0,-0.63 -0.511,-1.142 -1.141,-1.142 -0.63,0 -1.142,0.512 -1.142,1.142 0,0.63 0.512,1.144 1.142,1.144" />
        <path
           inkscape:connector-curvature="0"
           id="path252"
           d="m 207.1,500.43 c 0.633,0 1.144,-0.514 1.144,-1.145 0,-0.629 -0.511,-1.141 -1.144,-1.141 -0.629,0 -1.141,0.512 -1.141,1.141 0,0.631 0.512,1.145 1.141,1.145" />
        <path
           inkscape:connector-curvature="0"
           id="path254"
           d="m 210.33,502.32 c 0.632,0 1.143,-0.51 1.143,-1.142 0,-0.627 -0.511,-1.141 -1.143,-1.141 -0.628,0 -1.141,0.514 -1.141,1.141 0,0.632 0.513,1.142 1.141,1.142" />
        <path
           inkscape:connector-curvature="0"
           id="path256"
           d="m 214.23,502.32 c 0.632,0 1.145,-0.512 1.145,-1.144 0,-0.628 -0.513,-1.139 -1.145,-1.139 -0.629,0 -1.141,0.511 -1.141,1.139 0,0.632 0.512,1.144 1.141,1.144" />
        <path
           inkscape:connector-curvature="0"
           id="path258"
           d="m 217.47,500.43 c 0.633,0 1.146,-0.512 1.146,-1.142 0,-0.63 -0.513,-1.141 -1.146,-1.141 -0.629,0 -1.141,0.511 -1.141,1.141 0,0.63 0.512,1.142 1.141,1.142" />
        <path
           inkscape:connector-curvature="0"
           id="path260"
           d="m 219.35,497.18 c 0.63,0 1.141,-0.514 1.141,-1.144 0,-0.63 -0.511,-1.142 -1.141,-1.142 -0.63,0 -1.142,0.512 -1.142,1.142 0,0.63 0.512,1.144 1.142,1.144" />
        <path
           inkscape:connector-curvature="0"
           id="path262"
           d="m 252.61,497.18 c 0.631,0 1.141,-0.514 1.141,-1.144 0,-0.63 -0.51,-1.142 -1.141,-1.142 -0.632,0 -1.143,0.512 -1.143,1.142 0,0.63 0.511,1.144 1.143,1.144" />
        <path
           inkscape:connector-curvature="0"
           id="path264"
           d="m 252.28,500.81 c 0.632,0 1.141,-0.514 1.141,-1.144 0,-0.631 -0.509,-1.142 -1.141,-1.142 -0.631,0 -1.143,0.511 -1.143,1.142 0,0.63 0.512,1.144 1.143,1.144" />
        <path
           inkscape:connector-curvature="0"
           id="path266"
           d="m 251.64,504.34 c 0.632,0 1.142,-0.512 1.142,-1.145 0,-0.629 -0.51,-1.142 -1.142,-1.142 -0.631,0 -1.143,0.513 -1.143,1.142 0,0.633 0.512,1.145 1.143,1.145" />
        <path
           inkscape:connector-curvature="0"
           id="path268"
           d="m 250.7,507.75 c 0.632,0 1.141,-0.512 1.141,-1.145 0,-0.627 -0.509,-1.141 -1.141,-1.141 -0.631,0 -1.143,0.514 -1.143,1.141 0,0.633 0.512,1.145 1.143,1.145" />
        <path
           inkscape:connector-curvature="0"
           id="path270"
           d="m 249.47,511.04 c 0.632,0 1.144,-0.514 1.144,-1.144 0,-0.63 -0.512,-1.14 -1.144,-1.14 -0.63,0 -1.141,0.51 -1.141,1.14 0,0.63 0.511,1.144 1.141,1.144" />
        <path
           inkscape:connector-curvature="0"
           id="path272"
           d="m 247.97,514.18 c 0.631,0 1.141,-0.512 1.141,-1.144 0,-0.628 -0.51,-1.142 -1.141,-1.142 -0.633,0 -1.145,0.514 -1.145,1.142 0,0.632 0.512,1.144 1.145,1.144" />
        <path
           inkscape:connector-curvature="0"
           id="path274"
           d="m 246.22,517.17 c 0.631,0 1.141,-0.51 1.141,-1.141 0,-0.63 -0.51,-1.143 -1.141,-1.143 -0.633,0 -1.144,0.513 -1.144,1.143 0,0.631 0.511,1.141 1.144,1.141" />
        <path
           inkscape:connector-curvature="0"
           id="path276"
           d="m 244.23,519.99 c 0.631,0 1.141,-0.514 1.141,-1.142 0,-0.63 -0.51,-1.144 -1.141,-1.144 -0.633,0 -1.144,0.514 -1.144,1.144 0,0.628 0.511,1.142 1.144,1.142" />
        <path
           inkscape:connector-curvature="0"
           id="path278"
           d="m 242.01,522.62 c 0.631,0 1.14,-0.512 1.14,-1.142 0,-0.63 -0.509,-1.142 -1.14,-1.142 -0.633,0 -1.144,0.512 -1.144,1.142 0,0.63 0.511,1.142 1.144,1.142" />
        <path
           inkscape:connector-curvature="0"
           id="path280"
           d="m 239.57,525.05 c 0.632,0 1.141,-0.514 1.141,-1.144 0,-0.628 -0.509,-1.14 -1.141,-1.14 -0.632,0 -1.143,0.512 -1.143,1.14 0,0.63 0.511,1.144 1.143,1.144" />
        <path
           inkscape:connector-curvature="0"
           id="path282"
           d="m 236.94,527.27 c 0.633,0 1.142,-0.514 1.142,-1.144 0,-0.63 -0.509,-1.143 -1.142,-1.143 -0.631,0 -1.141,0.513 -1.141,1.143 0,0.63 0.51,1.144 1.141,1.144" />
        <path
           inkscape:connector-curvature="0"
           id="path284"
           d="m 234.12,529.26 c 0.632,0 1.143,-0.512 1.143,-1.144 0,-0.628 -0.511,-1.142 -1.143,-1.142 -0.63,0 -1.143,0.514 -1.143,1.142 0,0.632 0.513,1.144 1.143,1.144" />
        <path
           inkscape:connector-curvature="0"
           id="path286"
           d="m 231.13,531.01 c 0.631,0 1.14,-0.512 1.14,-1.145 0,-0.629 -0.509,-1.141 -1.14,-1.141 -0.629,0 -1.143,0.512 -1.143,1.141 0,0.633 0.514,1.145 1.143,1.145" />
        <path
           inkscape:connector-curvature="0"
           id="path288"
           d="m 227.99,532.5 c 0.629,0 1.141,-0.514 1.141,-1.142 0,-0.629 -0.512,-1.142 -1.141,-1.142 -0.633,0 -1.143,0.513 -1.143,1.142 0,0.628 0.51,1.142 1.143,1.142" />
        <path
           inkscape:connector-curvature="0"
           id="path290"
           d="m 224.7,533.73 c 0.633,0 1.141,-0.512 1.141,-1.142 0,-0.63 -0.508,-1.144 -1.141,-1.144 -0.629,0 -1.141,0.514 -1.141,1.144 0,0.63 0.512,1.142 1.141,1.142" />
        <path
           inkscape:connector-curvature="0"
           id="path292"
           d="m 221.29,534.67 c 0.632,0 1.141,-0.514 1.141,-1.144 0,-0.628 -0.509,-1.14 -1.141,-1.14 -0.631,0 -1.142,0.512 -1.142,1.14 0,0.63 0.511,1.144 1.142,1.144" />
        <path
           inkscape:connector-curvature="0"
           id="path294"
           d="m 217.76,535.31 c 0.632,0 1.141,-0.512 1.141,-1.144 0,-0.628 -0.509,-1.142 -1.141,-1.142 -0.63,0 -1.141,0.514 -1.141,1.142 0,0.632 0.511,1.144 1.141,1.144" />
        <path
           inkscape:connector-curvature="0"
           id="path296"
           d="m 214.13,535.63 c 0.631,0 1.142,-0.514 1.142,-1.144 0,-0.628 -0.511,-1.142 -1.142,-1.142 -0.631,0 -1.143,0.514 -1.143,1.142 0,0.63 0.512,1.144 1.143,1.144" />
        <path
           inkscape:connector-curvature="0"
           id="path298"
           d="m 210.43,535.63 c 0.634,0 1.142,-0.514 1.142,-1.144 0,-0.628 -0.508,-1.142 -1.142,-1.142 -0.632,0 -1.141,0.514 -1.141,1.142 0,0.63 0.509,1.144 1.141,1.144" />
        <path
           inkscape:connector-curvature="0"
           id="path300"
           d="m 206.8,535.31 c 0.632,0 1.141,-0.512 1.141,-1.144 0,-0.628 -0.509,-1.142 -1.141,-1.142 -0.632,0 -1.143,0.514 -1.143,1.142 0,0.632 0.511,1.144 1.143,1.144" />
        <path
           inkscape:connector-curvature="0"
           id="path302"
           d="m 203.27,534.67 c 0.632,0 1.141,-0.514 1.141,-1.144 0,-0.628 -0.509,-1.14 -1.141,-1.14 -0.632,0 -1.142,0.512 -1.142,1.14 0,0.63 0.51,1.144 1.142,1.144" />
        <path
           inkscape:connector-curvature="0"
           id="path304"
           d="m 199.86,533.73 c 0.631,0 1.141,-0.512 1.141,-1.142 0,-0.63 -0.51,-1.144 -1.141,-1.144 -0.632,0 -1.144,0.514 -1.144,1.144 0,0.63 0.512,1.142 1.144,1.142" />
        <path
           inkscape:connector-curvature="0"
           id="path306"
           d="m 196.57,532.5 c 0.631,0 1.141,-0.514 1.141,-1.144 0,-0.63 -0.51,-1.14 -1.141,-1.14 -0.631,0 -1.143,0.51 -1.143,1.14 0,0.63 0.512,1.144 1.143,1.144" />
        <path
           inkscape:connector-curvature="0"
           id="path308"
           d="m 193.43,531.01 c 0.63,0 1.141,-0.51 1.141,-1.145 0,-0.627 -0.511,-1.139 -1.141,-1.139 -0.633,0 -1.143,0.512 -1.143,1.139 0,0.635 0.51,1.145 1.143,1.145" />
        <path
           inkscape:connector-curvature="0"
           id="path310"
           d="m 190.44,529.26 c 0.63,0 1.141,-0.514 1.141,-1.144 0,-0.628 -0.511,-1.142 -1.141,-1.142 -0.632,0 -1.142,0.514 -1.142,1.142 0,0.63 0.51,1.144 1.142,1.144" />
        <path
           inkscape:connector-curvature="0"
           id="path312"
           d="m 187.62,527.27 c 0.631,0 1.141,-0.514 1.141,-1.144 0,-0.63 -0.51,-1.143 -1.141,-1.143 -0.631,0 -1.143,0.513 -1.143,1.143 0,0.63 0.512,1.144 1.143,1.144" />
        <path
           inkscape:connector-curvature="0"
           id="path314"
           d="m 184.99,525.05 c 0.631,0 1.141,-0.512 1.141,-1.144 0,-0.628 -0.51,-1.14 -1.141,-1.14 -0.632,0 -1.143,0.512 -1.143,1.14 0,0.632 0.511,1.144 1.143,1.144" />
        <path
           inkscape:connector-curvature="0"
           id="path316"
           d="m 182.55,522.62 c 0.631,0 1.142,-0.514 1.142,-1.142 0,-0.63 -0.511,-1.142 -1.142,-1.142 -0.632,0 -1.142,0.512 -1.142,1.142 0,0.628 0.51,1.142 1.142,1.142" />
        <path
           inkscape:connector-curvature="0"
           id="path318"
           d="m 180.33,519.98 c 0.632,0 1.142,-0.512 1.142,-1.142 0,-0.63 -0.51,-1.142 -1.142,-1.142 -0.631,0 -1.141,0.512 -1.141,1.142 0,0.63 0.51,1.142 1.141,1.142" />
        <path
           inkscape:connector-curvature="0"
           id="path320"
           d="m 178.34,517.17 c 0.632,0 1.141,-0.51 1.141,-1.141 0,-0.63 -0.509,-1.143 -1.141,-1.143 -0.632,0 -1.142,0.513 -1.142,1.143 0,0.631 0.51,1.141 1.142,1.141" />
        <path
           inkscape:connector-curvature="0"
           id="path322"
           d="m 176.59,514.18 c 0.632,0 1.142,-0.51 1.142,-1.144 0,-0.628 -0.51,-1.14 -1.142,-1.14 -0.632,0 -1.143,0.512 -1.143,1.14 0,0.634 0.511,1.144 1.143,1.144" />
        <path
           inkscape:connector-curvature="0"
           id="path324"
           d="m 175.09,511.04 c 0.631,0 1.141,-0.514 1.141,-1.144 0,-0.63 -0.51,-1.14 -1.141,-1.14 -0.631,0 -1.141,0.51 -1.141,1.14 0,0.63 0.51,1.144 1.141,1.144" />
        <path
           inkscape:connector-curvature="0"
           id="path326"
           d="m 173.86,507.75 c 0.629,0 1.141,-0.512 1.141,-1.145 0,-0.63 -0.512,-1.141 -1.141,-1.141 -0.632,0 -1.143,0.511 -1.143,1.141 0,0.633 0.511,1.145 1.143,1.145" />
        <path
           inkscape:connector-curvature="0"
           id="path328"
           d="m 172.92,504.33 c 0.631,0 1.141,-0.51 1.141,-1.144 0,-0.627 -0.51,-1.14 -1.141,-1.14 -0.63,0 -1.141,0.513 -1.141,1.14 0,0.634 0.511,1.144 1.141,1.144" />
        <path
           inkscape:connector-curvature="0"
           id="path330"
           d="m 172.28,500.8 c 0.63,0 1.141,-0.51 1.141,-1.142 0,-0.63 -0.511,-1.141 -1.141,-1.141 -0.632,0 -1.142,0.511 -1.142,1.141 0,0.632 0.51,1.142 1.142,1.142" />
        <path
           inkscape:connector-curvature="0"
           id="path332"
           d="m 171.91,497.18 c 0.63,0 1.141,-0.514 1.141,-1.144 0,-0.63 -0.511,-1.142 -1.141,-1.142 -0.633,0 -1.144,0.512 -1.144,1.142 0,0.63 0.511,1.144 1.144,1.144" />
        <path
           inkscape:connector-curvature="0"
           id="path334"
           d="m 249.6,497.18 c 0.632,0 1.142,-0.514 1.142,-1.144 0,-0.63 -0.51,-1.142 -1.142,-1.142 -0.629,0 -1.141,0.512 -1.141,1.142 0,0.63 0.512,1.144 1.141,1.144" />
        <path
           inkscape:connector-curvature="0"
           id="path336"
           d="m 249.26,500.72 c 0.629,0 1.141,-0.512 1.141,-1.142 0,-0.63 -0.512,-1.142 -1.141,-1.142 -0.63,0 -1.141,0.512 -1.141,1.142 0,0.63 0.511,1.142 1.141,1.142" />
        <path
           inkscape:connector-curvature="0"
           id="path338"
           d="m 248.59,504.17 c 0.631,0 1.141,-0.51 1.141,-1.144 0,-0.628 -0.51,-1.142 -1.141,-1.142 -0.633,0 -1.142,0.514 -1.142,1.142 0,0.634 0.509,1.144 1.142,1.144" />
        <path
           inkscape:connector-curvature="0"
           id="path340"
           d="m 247.61,507.49 c 0.63,0 1.141,-0.512 1.141,-1.144 0,-0.628 -0.511,-1.139 -1.141,-1.139 -0.628,0 -1.142,0.511 -1.142,1.139 0,0.632 0.514,1.144 1.142,1.144" />
        <path
           inkscape:connector-curvature="0"
           id="path342"
           d="m 246.35,510.67 c 0.629,0 1.141,-0.512 1.141,-1.144 0,-0.63 -0.512,-1.142 -1.141,-1.142 -0.631,0 -1.141,0.512 -1.141,1.142 0,0.632 0.51,1.144 1.141,1.144" />
        <path
           inkscape:connector-curvature="0"
           id="path344"
           d="m 244.8,513.71 c 0.631,0 1.142,-0.514 1.142,-1.144 0,-0.63 -0.511,-1.142 -1.142,-1.142 -0.63,0 -1.141,0.512 -1.141,1.142 0,0.63 0.511,1.144 1.141,1.144" />
        <path
           inkscape:connector-curvature="0"
           id="path346"
           d="m 243,516.57 c 0.631,0 1.143,-0.512 1.143,-1.142 0,-0.629 -0.512,-1.142 -1.143,-1.142 -0.63,0 -1.141,0.513 -1.141,1.142 0,0.63 0.511,1.142 1.141,1.142" />
        <path
           inkscape:connector-curvature="0"
           id="path348"
           d="m 240.95,519.26 c 0.631,0 1.143,-0.514 1.143,-1.144 0,-0.63 -0.512,-1.143 -1.143,-1.143 -0.631,0 -1.141,0.513 -1.141,1.143 0,0.63 0.51,1.144 1.141,1.144" />
        <path
           inkscape:connector-curvature="0"
           id="path350"
           d="m 238.67,521.74 c 0.632,0 1.144,-0.512 1.144,-1.144 0,-0.628 -0.512,-1.14 -1.144,-1.14 -0.628,0 -1.141,0.512 -1.141,1.14 0,0.632 0.513,1.144 1.141,1.144" />
        <path
           inkscape:connector-curvature="0"
           id="path352"
           d="m 236.19,524.02 c 0.631,0 1.143,-0.512 1.143,-1.145 0,-0.627 -0.512,-1.141 -1.143,-1.141 -0.631,0 -1.14,0.514 -1.14,1.141 0,0.633 0.509,1.145 1.14,1.145" />
        <path
           inkscape:connector-curvature="0"
           id="path354"
           d="m 233.5,526.06 c 0.631,0 1.142,-0.51 1.142,-1.142 0,-0.627 -0.511,-1.141 -1.142,-1.141 -0.63,0 -1.14,0.514 -1.14,1.141 0,0.632 0.51,1.142 1.14,1.142" />
        <path
           inkscape:connector-curvature="0"
           id="path356"
           d="m 230.63,527.86 c 0.632,0 1.143,-0.514 1.143,-1.144 0,-0.627 -0.511,-1.14 -1.143,-1.14 -0.63,0 -1.141,0.513 -1.141,1.14 0,0.63 0.511,1.144 1.141,1.144" />
        <path
           inkscape:connector-curvature="0"
           id="path358"
           d="m 227.59,529.39 c 0.631,0 1.142,-0.51 1.142,-1.144 0,-0.627 -0.511,-1.14 -1.142,-1.14 -0.63,0 -1.142,0.513 -1.142,1.14 0,0.634 0.512,1.144 1.142,1.144" />
        <path
           inkscape:connector-curvature="0"
           id="path360"
           d="m 224.4,530.65 c 0.634,0 1.145,-0.512 1.145,-1.142 0,-0.629 -0.511,-1.142 -1.145,-1.142 -0.627,0 -1.141,0.513 -1.141,1.142 0,0.63 0.514,1.142 1.141,1.142" />
        <path
           inkscape:connector-curvature="0"
           id="path362"
           d="m 221.08,531.62 c 0.632,0 1.143,-0.514 1.143,-1.145 0,-0.629 -0.511,-1.142 -1.143,-1.142 -0.629,0 -1.141,0.513 -1.141,1.142 0,0.631 0.512,1.145 1.141,1.145" />
        <path
           inkscape:connector-curvature="0"
           id="path364"
           d="m 217.64,532.29 c 0.633,0 1.144,-0.514 1.144,-1.144 0,-0.628 -0.511,-1.143 -1.144,-1.143 -0.629,0 -1.141,0.515 -1.141,1.143 0,0.63 0.512,1.144 1.141,1.144" />
        <path
           inkscape:connector-curvature="0"
           id="path366"
           d="m 214.09,532.62 c 0.632,0 1.143,-0.514 1.143,-1.144 0,-0.628 -0.511,-1.14 -1.143,-1.14 -0.631,0 -1.143,0.512 -1.143,1.14 0,0.63 0.512,1.144 1.143,1.144" />
        <path
           inkscape:connector-curvature="0"
           id="path368"
           d="m 210.47,532.62 c 0.631,0 1.141,-0.514 1.141,-1.144 0,-0.628 -0.51,-1.14 -1.141,-1.14 -0.629,0 -1.143,0.512 -1.143,1.14 0,0.63 0.514,1.144 1.143,1.144" />
        <path
           inkscape:connector-curvature="0"
           id="path370"
           d="m 206.92,532.29 c 0.631,0 1.143,-0.514 1.143,-1.144 0,-0.628 -0.512,-1.143 -1.143,-1.143 -0.631,0 -1.141,0.515 -1.141,1.143 0,0.63 0.51,1.144 1.141,1.144" />
        <path
           inkscape:connector-curvature="0"
           id="path372"
           d="m 203.48,531.62 c 0.632,0 1.142,-0.514 1.142,-1.145 0,-0.629 -0.51,-1.142 -1.142,-1.142 -0.629,0 -1.141,0.513 -1.141,1.142 0,0.631 0.512,1.145 1.141,1.145" />
        <path
           inkscape:connector-curvature="0"
           id="path374"
           d="m 200.15,530.65 c 0.633,0 1.143,-0.512 1.143,-1.142 0,-0.629 -0.51,-1.142 -1.143,-1.142 -0.631,0 -1.141,0.513 -1.141,1.142 0,0.63 0.51,1.142 1.141,1.142" />
        <path
           inkscape:connector-curvature="0"
           id="path376"
           d="m 196.97,529.39 c 0.632,0 1.144,-0.51 1.144,-1.144 0,-0.627 -0.512,-1.14 -1.144,-1.14 -0.63,0 -1.142,0.513 -1.142,1.14 0,0.634 0.512,1.144 1.142,1.144" />
        <path
           inkscape:connector-curvature="0"
           id="path378"
           d="m 193.93,527.86 c 0.632,0 1.144,-0.514 1.144,-1.144 0,-0.628 -0.512,-1.14 -1.144,-1.14 -0.63,0 -1.141,0.512 -1.141,1.14 0,0.63 0.511,1.144 1.141,1.144" />
        <path
           inkscape:connector-curvature="0"
           id="path380"
           d="m 191.06,526.06 c 0.631,0 1.141,-0.51 1.141,-1.142 0,-0.63 -0.51,-1.141 -1.141,-1.141 -0.63,0 -1.142,0.511 -1.142,1.141 0,0.632 0.512,1.142 1.142,1.142" />
        <path
           inkscape:connector-curvature="0"
           id="path382"
           d="m 188.37,524.02 c 0.631,0 1.143,-0.512 1.143,-1.145 0,-0.627 -0.512,-1.141 -1.143,-1.141 -0.631,0 -1.141,0.514 -1.141,1.141 0,0.633 0.51,1.145 1.141,1.145" />
        <path
           inkscape:connector-curvature="0"
           id="path384"
           d="m 185.88,521.74 c 0.629,0 1.141,-0.512 1.141,-1.144 0,-0.628 -0.512,-1.14 -1.141,-1.14 -0.63,0 -1.141,0.512 -1.141,1.14 0,0.632 0.511,1.144 1.141,1.144" />
        <path
           inkscape:connector-curvature="0"
           id="path386"
           d="m 183.61,519.26 c 0.631,0 1.143,-0.512 1.143,-1.144 0,-0.628 -0.512,-1.142 -1.143,-1.142 -0.63,0 -1.143,0.514 -1.143,1.142 0,0.632 0.513,1.144 1.143,1.144" />
        <path
           inkscape:connector-curvature="0"
           id="path388"
           d="m 181.56,516.57 c 0.632,0 1.142,-0.512 1.142,-1.144 0,-0.628 -0.51,-1.14 -1.142,-1.14 -0.631,0 -1.141,0.512 -1.141,1.14 0,0.632 0.51,1.144 1.141,1.144" />
        <path
           inkscape:connector-curvature="0"
           id="path390"
           d="m 179.76,513.71 c 0.632,0 1.143,-0.514 1.143,-1.144 0,-0.63 -0.511,-1.142 -1.143,-1.142 -0.629,0 -1.143,0.512 -1.143,1.142 0,0.63 0.514,1.144 1.143,1.144" />
        <path
           inkscape:connector-curvature="0"
           id="path392"
           d="m 178.21,510.67 c 0.63,0 1.141,-0.51 1.141,-1.144 0,-0.628 -0.511,-1.14 -1.141,-1.14 -0.631,0 -1.141,0.512 -1.141,1.14 0,0.634 0.51,1.144 1.141,1.144" />
        <path
           inkscape:connector-curvature="0"
           id="path394"
           d="m 176.95,507.49 c 0.632,0 1.142,-0.51 1.142,-1.144 0,-0.628 -0.51,-1.139 -1.142,-1.139 -0.629,0 -1.141,0.511 -1.141,1.139 0,0.634 0.512,1.144 1.141,1.144" />
        <path
           inkscape:connector-curvature="0"
           id="path396"
           d="m 175.97,504.16 c 0.631,0 1.142,-0.509 1.142,-1.142 0,-0.627 -0.511,-1.141 -1.142,-1.141 -0.629,0 -1.143,0.514 -1.143,1.141 0,0.633 0.514,1.142 1.143,1.142" />
        <path
           inkscape:connector-curvature="0"
           id="path398"
           d="m 175.3,500.72 c 0.631,0 1.142,-0.512 1.142,-1.144 0,-0.628 -0.511,-1.14 -1.142,-1.14 -0.631,0 -1.143,0.512 -1.143,1.14 0,0.632 0.512,1.144 1.143,1.144" />
        <path
           inkscape:connector-curvature="0"
           id="path400"
           d="m 174.95,497.18 c 0.633,0 1.144,-0.514 1.144,-1.144 0,-0.63 -0.511,-1.142 -1.144,-1.142 -0.628,0 -1.141,0.512 -1.141,1.142 0,0.63 0.513,1.144 1.141,1.144" />
        <path
           inkscape:connector-curvature="0"
           id="path402"
           d="m 246.61,497.18 c 0.629,0 1.14,-0.514 1.14,-1.144 0,-0.63 -0.511,-1.142 -1.14,-1.142 -0.631,0 -1.141,0.512 -1.141,1.142 0,0.63 0.51,1.144 1.141,1.144" />
        <path
           inkscape:connector-curvature="0"
           id="path404"
           d="m 246.23,500.63 c 0.632,0 1.143,-0.515 1.143,-1.144 0,-0.627 -0.511,-1.14 -1.143,-1.14 -0.63,0 -1.141,0.513 -1.141,1.14 0,0.629 0.511,1.144 1.141,1.144" />
        <path
           inkscape:connector-curvature="0"
           id="path406"
           d="m 245.53,503.98 c 0.632,0 1.143,-0.514 1.143,-1.144 0,-0.628 -0.511,-1.14 -1.143,-1.14 -0.631,0 -1.141,0.512 -1.141,1.14 0,0.63 0.51,1.144 1.141,1.144" />
        <path
           inkscape:connector-curvature="0"
           id="path408"
           d="m 244.52,507.19 c 0.631,0 1.141,-0.514 1.141,-1.147 0,-0.627 -0.51,-1.139 -1.141,-1.139 -0.63,0 -1.142,0.512 -1.142,1.139 0,0.633 0.512,1.147 1.142,1.147" />
        <path
           inkscape:connector-curvature="0"
           id="path410"
           d="m 243.21,510.27 c 0.633,0 1.144,-0.512 1.144,-1.144 0,-0.63 -0.511,-1.14 -1.144,-1.14 -0.629,0 -1.141,0.51 -1.141,1.14 0,0.632 0.512,1.144 1.141,1.144" />
        <path
           inkscape:connector-curvature="0"
           id="path412"
           d="m 241.62,513.18 c 0.632,0 1.143,-0.512 1.143,-1.142 0,-0.63 -0.511,-1.142 -1.143,-1.142 -0.628,0 -1.141,0.512 -1.141,1.142 0,0.63 0.513,1.142 1.141,1.142" />
        <path
           inkscape:connector-curvature="0"
           id="path414"
           d="m 239.77,515.91 c 0.631,0 1.144,-0.512 1.144,-1.144 0,-0.628 -0.513,-1.14 -1.144,-1.14 -0.629,0 -1.14,0.512 -1.14,1.14 0,0.632 0.511,1.144 1.14,1.144" />
        <path
           inkscape:connector-curvature="0"
           id="path416"
           d="m 237.67,518.44 c 0.63,0 1.142,-0.51 1.142,-1.144 0,-0.628 -0.512,-1.14 -1.142,-1.14 -0.629,0 -1.143,0.512 -1.143,1.14 0,0.634 0.514,1.144 1.143,1.144" />
        <path
           inkscape:connector-curvature="0"
           id="path418"
           d="m 235.34,520.77 c 0.633,0 1.143,-0.512 1.143,-1.144 0,-0.628 -0.51,-1.14 -1.143,-1.14 -0.629,0 -1.141,0.512 -1.141,1.14 0,0.632 0.512,1.144 1.141,1.144" />
        <path
           inkscape:connector-curvature="0"
           id="path420"
           d="m 232.8,522.86 c 0.63,0 1.14,-0.512 1.14,-1.144 0,-0.63 -0.51,-1.139 -1.14,-1.139 -0.631,0 -1.143,0.509 -1.143,1.139 0,0.632 0.512,1.144 1.143,1.144" />
        <path
           inkscape:connector-curvature="0"
           id="path422"
           d="m 230.06,524.7 c 0.632,0 1.143,-0.512 1.143,-1.142 0,-0.63 -0.511,-1.141 -1.143,-1.141 -0.629,0 -1.141,0.511 -1.141,1.141 0,0.63 0.512,1.142 1.141,1.142" />
        <path
           inkscape:connector-curvature="0"
           id="path424"
           d="m 227.15,526.28 c 0.632,0 1.144,-0.51 1.144,-1.142 0,-0.63 -0.512,-1.144 -1.144,-1.144 -0.629,0 -1.141,0.514 -1.141,1.144 0,0.632 0.512,1.142 1.141,1.142" />
        <path
           inkscape:connector-curvature="0"
           id="path426"
           d="m 224.07,527.58 c 0.631,0 1.143,-0.512 1.143,-1.141 0,-0.63 -0.512,-1.143 -1.143,-1.143 -0.63,0 -1.141,0.513 -1.141,1.143 0,0.629 0.511,1.141 1.141,1.141" />
        <path
           inkscape:connector-curvature="0"
           id="path428"
           d="m 220.85,528.58 c 0.631,0 1.142,-0.512 1.142,-1.144 0,-0.63 -0.511,-1.14 -1.142,-1.14 -0.63,0 -1.141,0.51 -1.141,1.14 0,0.632 0.511,1.144 1.141,1.144" />
        <path
           inkscape:connector-curvature="0"
           id="path430"
           d="m 217.5,529.26 c 0.631,0 1.143,-0.514 1.143,-1.144 0,-0.628 -0.512,-1.142 -1.143,-1.142 -0.63,0 -1.141,0.514 -1.141,1.142 0,0.63 0.511,1.144 1.141,1.144" />
        <path
           inkscape:connector-curvature="0"
           id="path432"
           d="m 214.04,529.61 c 0.631,0 1.142,-0.514 1.142,-1.142 0,-0.63 -0.511,-1.144 -1.142,-1.144 -0.631,0 -1.142,0.514 -1.142,1.144 0,0.628 0.511,1.142 1.142,1.142" />
        <path
           inkscape:connector-curvature="0"
           id="path434"
           d="m 210.51,529.61 c 0.632,0 1.143,-0.512 1.143,-1.142 0,-0.63 -0.511,-1.144 -1.143,-1.144 -0.63,0 -1.141,0.514 -1.141,1.144 0,0.63 0.511,1.142 1.141,1.142" />
        <path
           inkscape:connector-curvature="0"
           id="path436"
           d="m 207.06,529.26 c 0.629,0 1.141,-0.514 1.141,-1.144 0,-0.63 -0.512,-1.142 -1.141,-1.142 -0.63,0 -1.145,0.512 -1.145,1.142 0,0.63 0.515,1.144 1.145,1.144" />
        <path
           inkscape:connector-curvature="0"
           id="path438"
           d="m 203.71,528.58 c 0.631,0 1.143,-0.512 1.143,-1.144 0,-0.63 -0.512,-1.14 -1.143,-1.14 -0.631,0 -1.143,0.51 -1.143,1.14 0,0.632 0.512,1.144 1.143,1.144" />
        <path
           inkscape:connector-curvature="0"
           id="path440"
           d="m 200.49,527.58 c 0.631,0 1.141,-0.51 1.141,-1.141 0,-0.63 -0.51,-1.142 -1.141,-1.142 -0.632,0 -1.143,0.512 -1.143,1.142 0,0.631 0.511,1.141 1.143,1.141" />
        <path
           inkscape:connector-curvature="0"
           id="path442"
           d="m 197.41,526.28 c 0.63,0 1.141,-0.51 1.141,-1.141 0,-0.631 -0.511,-1.143 -1.141,-1.143 -0.632,0 -1.143,0.512 -1.143,1.143 0,0.631 0.511,1.141 1.143,1.141" />
        <path
           inkscape:connector-curvature="0"
           id="path444"
           d="m 194.49,524.7 c 0.632,0 1.142,-0.512 1.142,-1.142 0,-0.63 -0.51,-1.141 -1.142,-1.141 -0.63,0 -1.141,0.511 -1.141,1.141 0,0.63 0.511,1.142 1.141,1.142" />
        <path
           inkscape:connector-curvature="0"
           id="path446"
           d="m 191.76,522.86 c 0.631,0 1.141,-0.512 1.141,-1.144 0,-0.63 -0.51,-1.14 -1.141,-1.14 -0.631,0 -1.141,0.51 -1.141,1.14 0,0.632 0.51,1.144 1.141,1.144" />
        <path
           inkscape:connector-curvature="0"
           id="path448"
           d="m 189.21,520.77 c 0.631,0 1.142,-0.512 1.142,-1.144 0,-0.628 -0.511,-1.14 -1.142,-1.14 -0.629,0 -1.141,0.512 -1.141,1.14 0,0.632 0.512,1.144 1.141,1.144" />
        <path
           inkscape:connector-curvature="0"
           id="path450"
           d="m 186.88,518.44 c 0.631,0 1.142,-0.509 1.142,-1.142 0,-0.629 -0.511,-1.141 -1.142,-1.141 -0.629,0 -1.14,0.512 -1.14,1.141 0,0.633 0.511,1.142 1.14,1.142" />
        <path
           inkscape:connector-curvature="0"
           id="path452"
           d="m 184.79,515.91 c 0.631,0 1.143,-0.51 1.143,-1.142 0,-0.629 -0.512,-1.141 -1.143,-1.141 -0.629,0 -1.141,0.512 -1.141,1.141 0,0.632 0.512,1.142 1.141,1.142" />
        <path
           inkscape:connector-curvature="0"
           id="path454"
           d="m 182.93,513.18 c 0.629,0 1.141,-0.512 1.141,-1.144 0,-0.63 -0.512,-1.14 -1.141,-1.14 -0.63,0 -1.141,0.51 -1.141,1.14 0,0.632 0.511,1.144 1.141,1.144" />
        <path
           inkscape:connector-curvature="0"
           id="path456"
           d="m 181.34,510.27 c 0.631,0 1.142,-0.512 1.142,-1.144 0,-0.63 -0.511,-1.14 -1.142,-1.14 -0.63,0 -1.141,0.51 -1.141,1.14 0,0.632 0.511,1.144 1.141,1.144" />
        <path
           inkscape:connector-curvature="0"
           id="path458"
           d="m 180.03,507.19 c 0.63,0 1.141,-0.514 1.141,-1.147 0,-0.627 -0.511,-1.139 -1.141,-1.139 -0.631,0 -1.142,0.512 -1.142,1.139 0,0.633 0.511,1.147 1.142,1.147" />
        <path
           inkscape:connector-curvature="0"
           id="path460"
           d="m 179.02,503.98 c 0.63,0 1.142,-0.514 1.142,-1.144 0,-0.628 -0.512,-1.14 -1.142,-1.14 -0.629,0 -1.141,0.512 -1.141,1.14 0,0.63 0.512,1.144 1.141,1.144" />
        <path
           inkscape:connector-curvature="0"
           id="path462"
           d="m 178.33,500.63 c 0.632,0 1.143,-0.514 1.143,-1.144 0,-0.627 -0.511,-1.14 -1.143,-1.14 -0.63,0 -1.141,0.513 -1.141,1.14 0,0.63 0.511,1.144 1.141,1.144" />
        <path
           inkscape:connector-curvature="0"
           id="path464"
           d="m 177.96,497.18 c 0.632,0 1.143,-0.514 1.143,-1.144 0,-0.63 -0.511,-1.142 -1.143,-1.142 -0.631,0 -1.141,0.512 -1.141,1.142 0,0.63 0.51,1.144 1.141,1.144" />
        <path
           inkscape:connector-curvature="0"
           id="path466"
           d="m 243.59,497.18 c 0.632,0 1.143,-0.514 1.143,-1.144 0,-0.63 -0.511,-1.142 -1.143,-1.142 -0.63,0 -1.141,0.512 -1.141,1.142 0,0.63 0.511,1.144 1.141,1.144" />
        <path
           inkscape:connector-curvature="0"
           id="path468"
           d="m 243.14,500.91 c 0.633,0 1.144,-0.514 1.144,-1.145 0,-0.63 -0.511,-1.142 -1.144,-1.142 -0.629,0 -1.144,0.512 -1.144,1.142 0,0.631 0.515,1.145 1.144,1.145" />
        <path
           inkscape:connector-curvature="0"
           id="path470"
           d="m 242.27,504.49 c 0.631,0 1.143,-0.512 1.143,-1.142 0,-0.63 -0.512,-1.142 -1.143,-1.142 -0.63,0 -1.144,0.512 -1.144,1.142 0,0.63 0.514,1.142 1.144,1.142" />
        <path
           inkscape:connector-curvature="0"
           id="path472"
           d="m 241,507.9 c 0.631,0 1.141,-0.512 1.141,-1.142 0,-0.63 -0.51,-1.142 -1.141,-1.142 -0.63,0 -1.143,0.512 -1.143,1.142 0,0.63 0.513,1.142 1.143,1.142" />
        <path
           inkscape:connector-curvature="0"
           id="path474"
           d="m 239.36,511.11 c 0.63,0 1.142,-0.512 1.142,-1.144 0,-0.63 -0.512,-1.14 -1.142,-1.14 -0.631,0 -1.144,0.51 -1.144,1.14 0,0.632 0.513,1.144 1.144,1.144" />
        <path
           inkscape:connector-curvature="0"
           id="path476"
           d="m 237.38,514.09 c 0.631,0 1.144,-0.512 1.144,-1.142 0,-0.632 -0.513,-1.142 -1.144,-1.142 -0.629,0 -1.143,0.51 -1.143,1.142 0,0.63 0.514,1.142 1.143,1.142" />
        <path
           inkscape:connector-curvature="0"
           id="path478"
           d="m 235.08,516.82 c 0.632,0 1.141,-0.512 1.141,-1.145 0,-0.629 -0.509,-1.139 -1.141,-1.139 -0.629,0 -1.143,0.51 -1.143,1.139 0,0.633 0.514,1.145 1.143,1.145" />
        <path
           inkscape:connector-curvature="0"
           id="path480"
           d="m 232.49,519.27 c 0.631,0 1.143,-0.512 1.143,-1.144 0,-0.627 -0.512,-1.14 -1.143,-1.14 -0.63,0 -1.141,0.513 -1.141,1.14 0,0.632 0.511,1.144 1.141,1.144" />
        <path
           inkscape:connector-curvature="0"
           id="path482"
           d="m 229.63,521.41 c 0.629,0 1.141,-0.512 1.141,-1.142 0,-0.63 -0.512,-1.142 -1.141,-1.142 -0.631,0 -1.144,0.512 -1.144,1.142 0,0.63 0.513,1.142 1.144,1.142" />
        <path
           inkscape:connector-curvature="0"
           id="path484"
           d="m 226.53,523.23 c 0.632,0 1.144,-0.514 1.144,-1.144 0,-0.63 -0.512,-1.14 -1.144,-1.14 -0.629,0 -1.14,0.51 -1.14,1.14 0,0.63 0.511,1.144 1.14,1.144" />
        <path
           inkscape:connector-curvature="0"
           id="path486"
           d="m 223.23,524.69 c 0.63,0 1.141,-0.512 1.141,-1.142 0,-0.63 -0.511,-1.141 -1.141,-1.141 -0.633,0 -1.143,0.511 -1.143,1.141 0,0.63 0.51,1.142 1.143,1.142" />
        <path
           inkscape:connector-curvature="0"
           id="path488"
           d="m 219.73,525.76 c 0.63,0 1.141,-0.512 1.141,-1.142 0,-0.63 -0.511,-1.144 -1.141,-1.144 -0.63,0 -1.142,0.514 -1.142,1.144 0,0.63 0.512,1.142 1.142,1.142" />
        <path
           inkscape:connector-curvature="0"
           id="path490"
           d="m 216.07,526.43 c 0.633,0 1.144,-0.514 1.144,-1.147 0,-0.628 -0.511,-1.14 -1.144,-1.14 -0.629,0 -1.142,0.512 -1.142,1.14 0,0.633 0.513,1.147 1.142,1.147" />
        <path
           inkscape:connector-curvature="0"
           id="path492"
           d="m 212.28,526.65 c 0.632,0 1.143,-0.512 1.143,-1.145 0,-0.627 -0.511,-1.141 -1.143,-1.141 -0.629,0 -1.143,0.514 -1.143,1.141 0,0.633 0.514,1.145 1.143,1.145" />
        <path
           inkscape:connector-curvature="0"
           id="path494"
           d="m 208.48,526.43 c 0.633,0 1.144,-0.514 1.144,-1.147 0,-0.628 -0.511,-1.14 -1.144,-1.14 -0.629,0 -1.141,0.512 -1.141,1.14 0,0.633 0.512,1.147 1.141,1.147" />
        <path
           inkscape:connector-curvature="0"
           id="path496"
           d="m 204.83,525.76 c 0.632,0 1.143,-0.512 1.143,-1.144 0,-0.63 -0.511,-1.142 -1.143,-1.142 -0.63,0 -1.141,0.512 -1.141,1.142 0,0.632 0.511,1.144 1.141,1.144" />
        <path
           inkscape:connector-curvature="0"
           id="path498"
           d="m 201.33,524.69 c 0.632,0 1.142,-0.512 1.142,-1.142 0,-0.63 -0.51,-1.141 -1.142,-1.141 -0.631,0 -1.141,0.511 -1.141,1.141 0,0.63 0.51,1.142 1.141,1.142" />
        <path
           inkscape:connector-curvature="0"
           id="path500"
           d="m 198.02,523.23 c 0.63,0 1.142,-0.512 1.142,-1.142 0,-0.63 -0.512,-1.142 -1.142,-1.142 -0.631,0 -1.144,0.512 -1.144,1.142 0,0.63 0.513,1.142 1.144,1.142" />
        <path
           inkscape:connector-curvature="0"
           id="path502"
           d="m 194.93,521.41 c 0.632,0 1.143,-0.51 1.143,-1.142 0,-0.629 -0.511,-1.141 -1.143,-1.141 -0.63,0 -1.142,0.512 -1.142,1.141 0,0.632 0.512,1.142 1.142,1.142" />
        <path
           inkscape:connector-curvature="0"
           id="path504"
           d="m 192.07,519.27 c 0.632,0 1.144,-0.512 1.144,-1.144 0,-0.627 -0.512,-1.14 -1.144,-1.14 -0.629,0 -1.14,0.513 -1.14,1.14 0,0.632 0.511,1.144 1.14,1.144" />
        <path
           inkscape:connector-curvature="0"
           id="path506"
           d="m 189.48,516.82 c 0.63,0 1.141,-0.512 1.141,-1.145 0,-0.629 -0.511,-1.139 -1.141,-1.139 -0.632,0 -1.144,0.51 -1.144,1.139 0,0.633 0.512,1.145 1.144,1.145" />
        <path
           inkscape:connector-curvature="0"
           id="path508"
           d="m 187.18,514.09 c 0.631,0 1.142,-0.514 1.142,-1.142 0,-0.632 -0.511,-1.144 -1.142,-1.144 -0.631,0 -1.141,0.512 -1.141,1.144 0,0.628 0.51,1.142 1.141,1.142" />
        <path
           inkscape:connector-curvature="0"
           id="path510"
           d="m 185.2,511.11 c 0.631,0 1.143,-0.512 1.143,-1.144 0,-0.63 -0.512,-1.14 -1.143,-1.14 -0.631,0 -1.141,0.51 -1.141,1.14 0,0.632 0.51,1.144 1.141,1.144" />
        <path
           inkscape:connector-curvature="0"
           id="path512"
           d="m 183.56,507.9 c 0.63,0 1.141,-0.512 1.141,-1.142 0,-0.63 -0.511,-1.142 -1.141,-1.142 -0.631,0 -1.143,0.512 -1.143,1.142 0,0.63 0.512,1.142 1.143,1.142" />
        <path
           inkscape:connector-curvature="0"
           id="path514"
           d="m 182.29,504.49 c 0.63,0 1.141,-0.512 1.141,-1.142 0,-0.63 -0.511,-1.142 -1.141,-1.142 -0.63,0 -1.142,0.512 -1.142,1.142 0,0.63 0.512,1.142 1.142,1.142" />
        <path
           inkscape:connector-curvature="0"
           id="path516"
           d="m 181.42,500.91 c 0.632,0 1.143,-0.514 1.143,-1.144 0,-0.63 -0.511,-1.14 -1.143,-1.14 -0.63,0 -1.141,0.51 -1.141,1.14 0,0.63 0.511,1.144 1.141,1.144" />
        <path
           inkscape:connector-curvature="0"
           id="path518"
           d="m 180.97,497.18 c 0.633,0 1.144,-0.514 1.144,-1.144 0,-0.63 -0.511,-1.142 -1.144,-1.142 -0.629,0 -1.14,0.512 -1.14,1.142 0,0.63 0.511,1.144 1.14,1.144" />
      </g>
      <g
         id="g558"
         fill="#4c4d4f">
        <path
           inkscape:connector-curvature="0"
           id="path522"
           d="m 159.58,485.12 h 4.795 c 4.042,0 6.835,-2.774 6.835,-6.394 v -0.036 c 0,-3.619 -2.793,-6.43 -6.835,-6.43 h -4.795 z m 2.26,-2.057 v -8.745 h 2.535 c 2.701,0 4.465,1.818 4.465,4.335 v 0.037 c 0,2.517 -1.764,4.373 -4.465,4.373 z" />
        <path
           inkscape:connector-curvature="0"
           id="path524"
           d="m 173.34,485.12 h 2.26 v -12.86 h -2.26 z" />
        <path
           inkscape:connector-curvature="0"
           id="path526"
           d="m 178.31,485.12 h 5.071 c 3.013,0 4.887,-1.708 4.887,-4.299 v -0.037 c 0,-2.884 -2.315,-4.391 -5.145,-4.391 h -2.553 v -4.133 h -2.26 z m 4.887,-6.687 c 1.709,0 2.775,0.956 2.775,2.297 v 0.036 c 0,1.506 -1.085,2.297 -2.775,2.297 h -2.627 v -4.63 z" />
        <path
           inkscape:connector-curvature="0"
           id="path528"
           d="m 189.65,477.72 v 7.403 h 2.26 v -7.312 c 0,-2.388 1.231,-3.655 3.252,-3.655 2.003,0 3.233,1.194 3.233,3.564 v 7.403 h 2.26 v -7.293 c 0,-3.84 -2.168,-5.769 -5.53,-5.769 -3.343,0 -5.475,1.929 -5.475,5.659" />
        <path
           inkscape:connector-curvature="0"
           id="path530"
           d="m 206.2,483.03 h -4.078 v 2.094 h 10.435 v -2.094 h -4.078 V 472.264 H 206.2 Z" />
        <path
           inkscape:connector-curvature="0"
           id="path532"
           d="m 218.76,485.21 h 2.095 l 5.658,-12.952 h -2.388 l -1.305,3.105 h -6.081 l -1.323,-3.105 h -2.314 z m 3.234,-7.845 -2.224,5.144 -2.204,-5.144 z" />
        <path
           inkscape:connector-curvature="0"
           id="path534"
           d="m 228,485.12 h 4.796 c 4.041,0 6.834,-2.774 6.834,-6.394 v -0.036 c 0,-3.619 -2.793,-6.43 -6.834,-6.43 H 228 Z m 2.26,-2.057 v -8.745 h 2.536 c 2.7,0 4.464,1.818 4.464,4.335 v 0.037 c 0,2.517 -1.764,4.373 -4.464,4.373 z" />
        <path
           inkscape:connector-curvature="0"
           id="path536"
           d="m 241.06,478.66 v 0.037 c 0,3.619 2.792,6.65 6.742,6.65 3.95,0 6.706,-2.994 6.706,-6.614 v -0.036 c 0,-3.62 -2.793,-6.651 -6.742,-6.651 -3.951,0 -6.706,2.994 -6.706,6.614 m 11.078,0 v 0.037 c 0,2.498 -1.819,4.574 -4.372,4.574 -2.554,0 -4.337,-2.039 -4.337,-4.538 v -0.036 c 0,-2.499 1.82,-4.556 4.373,-4.556 2.554,0 4.336,2.021 4.336,4.519" />
        <path
           inkscape:connector-curvature="0"
           id="path538"
           d="m 255.66,474.14 1.36,1.616 c 1.231,-1.065 2.48,-1.671 4.06,-1.671 1.397,0 2.278,0.661 2.278,1.617 v 0.036 c 0,0.919 -0.514,1.415 -2.902,1.966 -2.738,0.662 -4.281,1.47 -4.281,3.84 v 0.037 c 0,2.204 1.837,3.729 4.391,3.729 1.874,0 3.362,-0.569 4.666,-1.617 l -1.212,-1.708 c -1.158,0.863 -2.316,1.322 -3.491,1.322 -1.323,0 -2.094,-0.68 -2.094,-1.525 v -0.036 c 0,-0.993 0.587,-1.433 3.068,-2.021 2.718,-0.661 4.115,-1.635 4.115,-3.766 v -0.037 c 0,-2.406 -1.893,-3.84 -4.593,-3.84 -1.966,0 -3.822,0.68 -5.365,2.058" />
        <path
           inkscape:connector-curvature="0"
           id="path540"
           d="m 174.75,465.41 h 1.481 l 4.002,-9.159 h -1.689 l -0.923,2.196 h -4.3 l -0.936,-2.196 h -1.637 z m 2.287,-5.548 -1.573,3.639 -1.558,-3.639 z" />
        <path
           inkscape:connector-curvature="0"
           id="path542"
           d="m 182.04,465.35 h 4.053 c 1.144,0 2.04,-0.338 2.625,-0.909 0.48,-0.494 0.753,-1.17 0.753,-1.962 v -0.026 c 0,-1.494 -0.896,-2.391 -2.156,-2.754 l 2.455,-3.443 h -1.897 l -2.234,3.17 h -2.001 v -3.17 h -1.598 z m 3.937,-4.508 c 1.143,0 1.871,0.598 1.871,1.52 v 0.026 c 0,0.975 -0.702,1.507 -1.884,1.507 h -2.326 v -3.053 z" />
        <path
           inkscape:connector-curvature="0"
           id="path544"
           d="m 191.28,460.77 v 0.026 c 0,2.546 1.949,4.703 4.69,4.703 1.586,0 2.56,-0.441 3.495,-1.234 l -1.013,-1.208 c -0.702,0.598 -1.39,0.974 -2.547,0.974 -1.675,0 -2.949,-1.468 -2.949,-3.209 v -0.026 c 0,-1.87 1.234,-3.248 3.092,-3.248 0.857,0 1.637,0.273 2.196,0.689 v 1.702 h -2.326 v 1.39 h 3.872 v -3.82 c -0.896,-0.766 -2.183,-1.416 -3.794,-1.416 -2.845,0 -4.716,2.027 -4.716,4.677" />
        <path
           inkscape:connector-curvature="0"
           id="path546"
           d="m 202.12,465.35 h 6.743 v -1.429 h -5.145 v -2.364 h 4.56 v -1.43 h -4.56 v -2.442 h 5.21 v -1.429 h -6.808 z" />
        <path
           inkscape:connector-curvature="0"
           id="path548"
           d="m 211.06,465.35 h 1.481 l 4.873,-6.288 v 6.288 h 1.571 v -9.094 h -1.338 l -5.015,6.47 v -6.47 h -1.572 z" />
        <path
           inkscape:connector-curvature="0"
           id="path550"
           d="m 223.8,463.87 h -2.885 v 1.481 h 7.38 v -1.481 h -2.884 v -7.614 H 223.8 Z" />
        <path
           inkscape:connector-curvature="0"
           id="path552"
           d="m 230.33,465.35 h 1.598 v -9.094 h -1.598 z" />
        <path
           inkscape:connector-curvature="0"
           id="path554"
           d="m 234.6,465.35 h 1.481 l 4.872,-6.288 v 6.288 h 1.572 v -9.094 h -1.338 l -5.015,6.47 v -6.47 H 234.6 Z" />
        <path
           inkscape:connector-curvature="0"
           id="path556"
           d="m 248.32,465.41 h 1.482 l 4.001,-9.159 h -1.689 l -0.922,2.196 h -4.301 l -0.936,-2.196 h -1.636 z m 2.287,-5.548 -1.572,3.639 -1.559,-3.639 z" />
      </g>
    </g>
  </g>
</svg>
